<?xml version="1.0" encoding="utf-8"?>
<!-- Generator: Adobe Illustrator 23.0.2, SVG Export Plug-In . SVG Version: 6.00 Build 0)  -->
<svg version="1.1" fill="#ffffff" id="Capa_1" xmlns="http://www.w3.org/2000/svg" xmlns:xlink="http://www.w3.org/1999/xlink" x="0px" y="0px"
	 viewBox="0 0 53.15991 17.99722" style="enable-background:new 0 0 53.15991 17.99722;" xml:space="preserve">
<style type="text/css">
	.st0{fill:#ffffff;}
</style>
<g>
	<path class="st0" d="M51.7013,6.54711c-2.06529,0.88616-4.4982,0.8777-6.65156-0.23105
		c-3.18674-1.64852-6.76748-1.79204-9.91973-0.69145l1.45411,4.56932c1.98039-0.72945,4.25045-0.65957,6.26986,0.38442
		c3.07598,1.59023,6.51827,1.78519,9.58501,0.80943c0.24313-0.07735,0.48375-0.16236,0.72091-0.25469L51.7013,6.54711z"/>
	<path class="st0" d="M1.37911,11.22958V5.755H0V2.95297h1.37911V0h3.27667v2.95297h2.71528V5.755H4.65578v4.93579
		c0,0.75399,0.32308,1.12063,1.05612,1.12063c0.60301,0,1.14208-0.15077,1.61651-0.40917v2.62931
		c-0.69038,0.40921-1.48756,0.66831-2.58732,0.66831C2.73657,14.69988,1.37911,13.90237,1.37911,11.22958"/>
	<path class="st0" d="M8.66491,16.79045l1.12001-2.45705c1.18597,0.6679,2.37092,1.05583,3.90121,1.05583
		c2.24225,0,3.2982-1.0774,3.2982-3.14669V11.6819c-0.96969,1.16423-2.02614,1.87545-3.77234,1.87545
		c-2.69404,0-5.12906-1.96121-5.12906-5.38828V8.12604c0-3.44893,2.4787-5.38832,5.12906-5.38832
		c1.78898,0,2.84493,0.75383,3.72969,1.72418V2.95285h3.27551v8.94492c0,2.06879-0.49559,3.57776-1.46528,4.54754
		c-1.07827,1.07789-2.73727,1.55191-4.97944,1.55191C11.89806,17.99722,10.13023,17.56635,8.66491,16.79045 M16.98433,8.16907
		V8.12604c0-1.57345-1.22871-2.67275-2.82406-2.67275c-1.59411,0-2.80137,1.0993-2.80137,2.67275v0.04303
		c0,1.59469,1.20726,2.67259,2.80137,2.67259C15.75562,10.84165,16.98433,9.74272,16.98433,8.16907"/>
	<path class="st0" d="M22.2871,2.95281h3.27576v1.63805c0.75432-0.9699,1.72418-1.85342,3.38446-1.85342
		c2.47858,0,3.92234,1.638,3.92234,4.28926v7.47935h-3.27671V8.06086c0-1.55146-0.73204-2.34901-1.98208-2.34901
		s-2.048,0.79755-2.048,2.34901v6.44518H22.2871V2.95281z"/>
</g>
</svg>
